<?xml version="1.0" encoding="utf-8"?>
<!-- Generator: Adobe Illustrator 22.0.0, SVG Export Plug-In . SVG Version: 6.00 Build 0)  -->
<svg version="1.1" id="图层_1" xmlns="http://www.w3.org/2000/svg" xmlns:xlink="http://www.w3.org/1999/xlink" x="0px" y="0px"
	 viewBox="0 0 96.8 89.2" style="enable-background:new 0 0 96.8 89.2;" xml:space="preserve">
<style type="text/css">
	.st0{opacity:0.8;fill:#008837;enable-background:new    ;}
	.st1{fill:none;stroke:#01A0C6;stroke-width:2;stroke-miterlimit:10;}
	.st2{fill:#01A0C6;stroke:#01A0C6;stroke-miterlimit:10;}
	.st3{opacity:0.9;}
	.st4{fill:#278A2A;}
	.st5{fill:#69B923;}
	.st6{fill:#24A9B4;}
	.st7{fill:#1C78B4;}
	.st8{fill:#E31B8A;}
	.st9{fill:#D51083;}
	.st10{fill:#F40F65;}
	.st11{fill:#F44484;}
	.st12{fill:#F52B40;}
	.st13{fill:#F93F17;}
	.st14{fill:#F95F19;}
	.st15{fill:#F84F10;}
	.st16{fill:#F8300E;}
</style>
<title>Eline_icons</title>
<path class="st0" d="M10.9,9.2v10.4c4,1,6.7,4.7,6.5,8.8v35c0,3.9-2.7,7.4-6.5,8.4v13.4h59.5v-23h-7.9c-2.3,5.6-7.7,9.2-13.7,9.2
	H36.5V28.2c-0.1-4,2.6-7.5,6.5-8.5V9.3L10.9,9.2z"/>
<g>
	<path class="st1" d="M52.6,9.5h16.9c3.2,0,5.7,2.6,5.7,5.7v39.1c0,3.2-2.6,5.7-5.7,5.7H52.6c-3.2,0-5.7-2.6-5.7-5.7V15.2
		C46.9,12.1,49.5,9.5,52.6,9.5z"/>
	<rect x="51" y="38.8" class="st2" width="19.8" height="15.8"/>
	<rect x="55.2" y="2.3" class="st2" width="11.9" height="7"/>
</g>
<g class="st3">
	<path class="st4" d="M12.2,67.2c-0.3-0.2-0.6-0.4-0.9-0.6c-0.2-0.2-0.4-0.4-0.6-0.6l-0.2,0.1l-0.3-0.2c0-0.5,0-1,0-1.5l0.3,0.1
		c0.1,0.2,0.1,0.4,0.2,0.6c0.1,0.2,0.2,0.4,0.3,0.6c0.1,0.2,0.3,0.4,0.5,0.6c0.2,0.2,0.4,0.4,0.7,0.5c0.4,0.2,0.7,0.3,0.9,0.1
		c0.2-0.1,0.3-0.4,0.2-0.9c-0.1-0.5-0.3-1-0.7-1.3c-0.2-0.2-0.4-0.3-0.6-0.4c-0.2-0.1-0.4-0.3-0.6-0.4c-0.3-0.2-0.5-0.4-0.7-0.7
		c-0.2-0.2-0.3-0.5-0.3-0.7c0-0.2,0-0.4,0.1-0.6c0.1-0.2,0.2-0.4,0.4-0.5c0.2-0.1,0.4-0.3,0.7-0.3c0.3-0.1,0.5-0.1,0.8-0.1
		c0.2,0,0.5,0.1,0.7,0.1c0.3,0.1,0.5,0.2,0.7,0.4l0.2-0.3h0.4c-0.1,0.8-0.2,1.6-0.2,2.4l-0.3-0.1c0-0.3-0.1-0.5-0.1-0.8
		c-0.1-0.2-0.1-0.5-0.2-0.7c-0.1-0.2-0.3-0.4-0.4-0.5c-0.2-0.1-0.5-0.2-0.7-0.2c-0.3,0-0.6,0.1-0.8,0.3c-0.2,0.2-0.3,0.5-0.2,0.7
		c0,0.2,0.1,0.4,0.2,0.5c0.1,0.2,0.3,0.3,0.4,0.4c0.2,0.1,0.4,0.3,0.6,0.4c0.2,0.1,0.4,0.2,0.6,0.4c0.3,0.2,0.6,0.5,0.8,0.8
		c0.4,0.6,0.5,1.3,0.3,1.9c-0.1,0.2-0.2,0.4-0.4,0.5c-0.2,0.1-0.4,0.1-0.7,0.1C12.7,67.5,12.4,67.4,12.2,67.2z"/>
	<path class="st5" d="M16.7,69.7c-0.3-0.2-0.6-0.4-0.9-0.6c-0.2-0.2-0.4-0.4-0.6-0.7L15,68.7l-0.3-0.2c0.1-0.8,0.1-1.5,0.2-2.3
		l0.3,0.1c0,0.3,0.1,0.6,0.2,0.9c0.1,0.3,0.2,0.6,0.3,0.8c0.1,0.3,0.3,0.5,0.5,0.7c0.2,0.2,0.4,0.4,0.7,0.5c0.3,0.2,0.7,0.2,1-0.1
		c0.3-0.4,0.4-0.8,0.3-1.3c0-0.3-0.1-0.6-0.2-0.9c-0.1-0.3-0.3-0.5-0.5-0.7c-0.2-0.2-0.4-0.3-0.6-0.5c-0.2-0.2-0.4-0.3-0.6-0.5
		c-0.3-0.2-0.5-0.5-0.7-0.8c-0.2-0.3-0.3-0.7-0.3-1c0-0.3,0-0.6,0.1-0.9c0.1-0.3,0.2-0.5,0.4-0.7c0.2-0.2,0.4-0.4,0.7-0.5
		c0.3-0.1,0.5-0.2,0.8-0.2c0.6,0,1.1,0.2,1.5,0.7l0.2-0.4h0.3c-0.1,1-0.2,2.1-0.3,3l-0.3-0.1c0-0.3-0.1-0.7-0.1-1
		c0-0.3-0.1-0.6-0.2-0.9c-0.1-0.2-0.2-0.4-0.4-0.6c-0.2-0.2-0.4-0.2-0.7-0.2c-0.3,0-0.7,0.2-0.8,0.4c-0.2,0.3-0.3,0.7-0.3,1.1
		c0,0.3,0.1,0.5,0.2,0.7c0.1,0.2,0.2,0.4,0.4,0.5c0.2,0.2,0.4,0.3,0.6,0.5c0.2,0.1,0.4,0.3,0.6,0.4c0.3,0.3,0.6,0.6,0.8,1
		c0.2,0.4,0.3,0.8,0.3,1.3c0,0.4,0,0.8-0.1,1.2c-0.1,0.3-0.2,0.6-0.5,0.8c-0.2,0.2-0.5,0.3-0.7,0.3C17.3,69.9,17,69.8,16.7,69.7z"/>
	<path class="st6" d="M25.1,72.4l-0.1,0.5l-1.5-0.5c-0.2-1.1-0.5-2.1-0.7-2.8c-0.2-0.8-0.5-1.6-0.7-2.4L21.5,67
		c-0.1,1.1-0.3,2.1-0.4,3.1c0,0,0,0.1,0,0.1v0.1c0,0.1,0,0.2,0,0.3c0,0.1,0.1,0.2,0.1,0.2c0.1,0.1,0.2,0.1,0.2,0.2
		c0.1,0.1,0.2,0.1,0.3,0.2c0,0.2,0,0.3-0.1,0.5c-0.8-0.3-1.7-0.7-2.5-1c0-0.1,0-0.3,0.1-0.4l0.3,0.1c0.1,0,0.2,0,0.3,0
		c0.1,0,0.2-0.1,0.2-0.2c0.1-0.1,0.1-0.2,0.1-0.4c0.3-2.2,0.6-4.6,0.9-7c0,0,0-0.1,0-0.1c0,0,0-0.1,0-0.1c0-0.1,0-0.2,0-0.3
		c0-0.1-0.1-0.1-0.1-0.2C20.8,62,20.7,62,20.6,62c-0.1,0-0.2-0.1-0.3-0.1l0.1-0.5l2.8,0c0.2,0,0.5,0,0.7,0.1
		c0.2,0.1,0.4,0.2,0.5,0.4c0.2,0.2,0.3,0.4,0.4,0.7c0.1,0.3,0.1,0.7,0.1,1c0,0.5,0,0.9-0.1,1.4c-0.1,0.4-0.2,0.7-0.4,1
		c-0.2,0.2-0.4,0.5-0.6,0.6c-0.2,0.2-0.5,0.3-0.7,0.3l0.6,1.9c0.1,0.5,0.3,1.1,0.5,1.8c0.1,0.3,0.2,0.5,0.3,0.8
		c0.1,0.2,0.2,0.3,0.2,0.4c0.1,0.1,0.2,0.2,0.3,0.3C24.9,72.3,25,72.3,25.1,72.4z M23.9,63.8c0-0.4-0.1-0.9-0.3-1.2
		c-0.2-0.3-0.4-0.5-0.8-0.5h-0.7c-0.2,1.5-0.4,3-0.5,4.4l0.6,0.1c0.5,0.1,1-0.2,1.2-0.7C23.8,65.3,23.9,64.5,23.9,63.8z"/>
	<path class="st7" d="M31.5,61.5c-0.1,1.1-0.2,2.2-0.4,3.3h-0.3c0-0.6-0.1-1.1-0.2-1.7c-0.1-0.5-0.3-0.7-0.4-0.8
		c-0.1,0-0.2,0-0.3-0.1c-0.1,0-0.3,0-0.4,0h-1.1c-0.2,1.7-0.4,3.3-0.6,5l0.7,0.1c0.2,0,0.3,0,0.5-0.1c0.2-0.1,0.3-0.2,0.4-0.4
		c0.1-0.2,0.2-0.4,0.2-0.6c0.1-0.3,0.2-0.6,0.2-0.9h0.3c-0.2,1.7-0.4,3.3-0.6,4.9l-0.3-0.1c0-0.1,0-0.2,0-0.2s0-0.2,0-0.3
		s0-0.4,0-0.6c0-0.2,0-0.3-0.1-0.5c0-0.2-0.1-0.4-0.3-0.5c-0.1-0.1-0.3-0.2-0.4-0.2l-0.7-0.1c-0.2,1.4-0.3,2.8-0.5,4.1
		c0,0,0,0.1,0,0.1c0,0,0,0.1,0,0.1c0,0.1,0,0.2,0,0.3c0,0.1,0.1,0.2,0.1,0.3c0.1,0.1,0.2,0.2,0.3,0.2c0.1,0.1,0.2,0.1,0.3,0.2
		c0,0.2-0.1,0.4-0.1,0.5c-0.9-0.2-1.8-0.5-2.6-0.8l0.1-0.5l0.3,0.1c0.1,0,0.2,0,0.3,0c0.1-0.1,0.2-0.2,0.2-0.3
		c0.1-0.2,0.1-0.3,0.1-0.5c0.3-2.8,0.7-5.6,1-8.5c0-0.1,0-0.1,0-0.2c0-0.1,0-0.1,0-0.2c0-0.1,0-0.2,0-0.3c0-0.1-0.1-0.2-0.1-0.2
		c-0.1-0.1-0.2-0.1-0.3-0.2c-0.1,0-0.2-0.1-0.3-0.1c0-0.2,0.1-0.4,0.1-0.5L31.5,61.5z"/>
	<path class="st7" d="M33.9,69.2c-0.1,0.5-0.1,1-0.2,1.5c-0.9-0.1-1.7-0.2-2.6-0.4l0.2-1.4C32.1,69,33,69.1,33.9,69.2z"/>
	<path class="st8" d="M40.2,61.3c-0.1,1.2-0.2,2.4-0.3,3.5h-0.3c0-0.6-0.1-1.2-0.2-1.8c-0.1-0.5-0.3-0.8-0.5-0.8
		c-0.1,0-0.2-0.1-0.3-0.1c-0.1,0-0.3,0-0.4,0h-1c-0.2,1.9-0.4,3.8-0.6,5.7l0.7,0c0.2,0,0.4,0,0.5-0.1c0.1-0.1,0.3-0.3,0.3-0.5
		c0.1-0.3,0.2-0.5,0.2-0.8c0.1-0.4,0.1-0.7,0.2-0.9h0.3c-0.2,1.9-0.4,3.8-0.5,5.6H38v-0.3c0-0.1,0-0.2,0-0.3c0-0.2,0-0.5,0-0.7
		c0-0.2,0-0.3-0.1-0.5c0-0.2-0.1-0.4-0.3-0.5c-0.1-0.1-0.3-0.1-0.4-0.1l-0.7,0c-0.1,1.5-0.3,2.9-0.4,4.3c0,0.2,0,0.3,0,0.5
		c0,0.2,0,0.3,0,0.4c0,0.3,0,0.5,0.2,0.7c0.2,0.2,0.5,0.3,0.8,0.3c0.3,0.1,0.7,0.1,1,0c0.2,0,0.3-0.2,0.4-0.3c0.2-0.5,0.4-1,0.6-1.5
		c0.2-0.7,0.4-1.2,0.5-1.5h0.3c-0.2,1.5-0.4,2.8-0.5,4.3c-1.7-0.2-3.5-0.5-5.2-0.8l0.1-0.6c0.1,0,0.2,0,0.4,0c0.1,0,0.2,0,0.3-0.1
		c0.1-0.1,0.2-0.2,0.2-0.3c0.1-0.2,0.1-0.4,0.1-0.6c0.3-3.3,0.7-6.7,1-10.1c0-0.1,0-0.1,0-0.2c0-0.1,0-0.1,0-0.2c0-0.1,0-0.2,0-0.4
		c0-0.1-0.1-0.2-0.1-0.3c-0.1-0.1-0.2-0.2-0.3-0.2c-0.1-0.1-0.2-0.1-0.3-0.1l0.1-0.7L40.2,61.3z"/>
	<path class="st9" d="M42.6,60.1c-0.4,4.3-0.8,8.5-1.2,12.6c0,0.3-0.1,0.5-0.1,0.8c0,0.2,0,0.4,0,0.6c0,0.3,0,0.6,0.1,0.8
		c0.1,0.1,0.2,0.2,0.4,0.2c0.1,0,0.2,0,0.3,0c0.1,0,0.2-0.1,0.3-0.1c0,0.2,0,0.4-0.1,0.7c-0.2,0.2-0.4,0.3-0.6,0.5
		c-0.1,0.1-0.3,0.1-0.5,0.1c-0.3,0-0.5-0.2-0.5-0.5c-0.1-0.3-0.2-0.7-0.2-1.1c0-0.2,0-0.3,0-0.5s0-0.4,0.1-0.7c0.3-3.6,0.7-7.3,1-11
		c0-0.2,0-0.4,0-0.5c0-0.1,0-0.2,0-0.3c0-0.2,0-0.4-0.1-0.6c0-0.1-0.1-0.2-0.2-0.3c-0.1-0.1-0.1-0.1-0.2-0.1l-0.3-0.1
		c0-0.2,0-0.4,0.1-0.6l1.6-0.3L42.6,60.1z"/>
	<path class="st10" d="M45,75.2L45,75.9c-0.2,0.2-0.4,0.4-0.6,0.5c-0.1,0.1-0.3,0.1-0.4,0.1c-0.3,0-0.5-0.2-0.5-0.5
		c-0.1-0.4-0.2-0.7-0.2-1.1c0-0.2,0-0.3,0-0.5c0-0.2,0-0.4,0.1-0.7l0.4-4.5c0-0.2,0-0.5,0.1-0.8s0-0.5,0-0.7c0-0.3,0-0.5-0.1-0.8
		c-0.1-0.1-0.2-0.2-0.3-0.2c-0.1,0-0.2,0-0.3,0.1L42.8,67l0.1-0.7c0.2-0.2,0.4-0.4,0.6-0.5c0.1-0.1,0.3-0.2,0.4-0.2
		c0.2,0,0.5,0.2,0.5,0.4c0.1,0.4,0.2,0.7,0.2,1.1c0,0.1,0,0.3,0,0.5c0,0.2,0,0.4,0,0.7l-0.4,4.5c0,0.3-0.1,0.5-0.1,0.8
		c0,0.3,0,0.5,0,0.7c0,0.3,0,0.6,0.1,0.8c0.1,0.1,0.2,0.2,0.4,0.2c0.1,0,0.2,0,0.2,0C44.9,75.3,45,75.2,45,75.2z M45.2,61.5
		c0,0.4,0,0.7-0.2,1.1C45,62.9,44.9,63,44.7,63c-0.2,0-0.3-0.1-0.4-0.4c-0.1-0.3-0.2-0.6-0.2-1c0-0.3,0-0.7,0.2-1
		c0.1-0.3,0.2-0.4,0.4-0.4c0.1,0,0.3,0.1,0.4,0.4C45.2,60.9,45.3,61.2,45.2,61.5L45.2,61.5z"/>
	<path class="st11" d="M50.4,75l-0.1,0.7c-0.3,0.3-0.5,0.5-0.6,0.6c-0.1,0.1-0.3,0.2-0.4,0.2c-0.2,0-0.4-0.1-0.5-0.4
		c-0.1-0.4-0.2-0.7-0.2-1.1c0-0.2,0-0.3,0-0.5c0-0.2,0-0.4,0.1-0.7l0.4-4c0-0.3,0.1-0.6,0.1-0.8c0-0.2,0-0.4,0-0.6
		c0-0.4,0-0.8-0.1-1.1c-0.1-0.3-0.2-0.4-0.4-0.4c-0.2,0-0.4,0.2-0.6,0.4c-0.3,0.4-0.5,0.8-0.6,1.3c-0.2,2.6-0.5,5.3-0.7,7.9h-0.8
		c0.2-2.3,0.4-4.6,0.6-6.9c0-0.2,0-0.4,0.1-0.7s0-0.6,0-0.8c0-0.3,0-0.5-0.1-0.8c-0.1-0.1-0.2-0.2-0.3-0.2c-0.1,0-0.2,0-0.2,0.1
		l-0.2,0.1c0-0.2,0-0.5,0.1-0.7c0.2-0.2,0.4-0.4,0.6-0.6c0.1-0.1,0.3-0.2,0.5-0.2c0.2,0,0.4,0.1,0.5,0.4c0.1,0.4,0.2,0.8,0.2,1.3
		l0,0c0.2-0.5,0.5-1,0.8-1.4c0.2-0.3,0.5-0.5,0.8-0.5c0.3,0,0.5,0.2,0.7,0.6c0.2,0.5,0.3,1,0.2,1.6c0,0.1,0,0.4,0,0.7
		c0,0.3,0,0.7-0.1,1l-0.3,3.5c0,0.2-0.1,0.5-0.1,0.8c0,0.3,0,0.5,0,0.7c0,0.3,0,0.6,0.1,0.8c0.1,0.1,0.2,0.2,0.4,0.2
		c0.1,0,0.2,0,0.2-0.1C50.2,75.1,50.3,75.1,50.4,75z"/>
	<path class="st12" d="M54.6,67.4c0,0.7-0.1,1.3-0.3,2c-0.2,0.5-0.4,1-0.8,1.4c-0.2,0.2-0.5,0.5-0.8,0.7c-0.3,0.2-0.6,0.3-0.9,0.4
		c0,0.9,0.1,1.7,0.3,2.6c0.2,0.6,0.4,0.9,0.8,0.8c0.3-0.1,0.6-0.3,0.8-0.6c0.3-0.5,0.5-1.1,0.6-1.6l0.3,0.4
		c-0.2,0.8-0.5,1.5-0.9,2.2c-0.4,0.6-0.7,0.9-1.1,0.9c-0.5,0-0.9-0.3-1.2-1c-0.3-1-0.5-2-0.4-3c0-0.9,0-1.7,0.1-2.6
		c0.1-0.8,0.3-1.5,0.5-2.3c0.2-0.6,0.4-1.1,0.8-1.6c0.2-0.4,0.6-0.6,1-0.7c0.4,0,0.8,0.2,0.9,0.6C54.5,66.3,54.6,66.8,54.6,67.4z
		 M53.8,67.2c0-0.2,0-0.4-0.1-0.7c0-0.1-0.1-0.2-0.1-0.3c0-0.1-0.1-0.1-0.2-0.2c-0.1,0-0.1,0-0.2,0c-0.4,0-0.7,0.5-1,1.5
		c-0.3,1.2-0.5,2.3-0.5,3.5c0.2-0.1,0.5-0.2,0.7-0.4c0.2-0.1,0.5-0.3,0.6-0.6c0.3-0.4,0.4-0.8,0.5-1.2
		C53.8,68.4,53.8,67.8,53.8,67.2L53.8,67.2z"/>
	<path class="st13" d="M61.7,75.8c-0.3,0.6-0.6,1.2-1,1.7c-0.3,0.4-0.8,0.7-1.3,0.9c-0.4,0.1-0.9,0-1.3-0.2
		c-0.5-0.3-0.9-0.8-1.2-1.3c-0.4-0.8-0.7-1.6-0.9-2.5c-0.2-1.2-0.4-2.4-0.4-3.6c0-1.2,0.1-2.4,0.2-3.5c0.1-1,0.4-2.1,0.7-3.1
		c0.3-0.8,0.7-1.5,1.2-2.1c0.4-0.5,1-0.8,1.6-0.9c0.5,0,1,0.1,1.3,0.5c0.4,0.4,0.7,0.9,1,1.4c0.3,0.6,0.4,1.3,0.5,2
		c0.1,0.8,0.2,1.6,0.2,2.4c0,1.4-0.1,2.8-0.5,4.1c-0.4,1.2-0.9,1.9-1.5,2c-0.3,0-0.5-0.1-0.6-0.3c-0.2-0.4-0.3-0.8-0.3-1.2l0,0
		c-0.1,0.4-0.3,0.9-0.5,1.3c-0.2,0.3-0.4,0.5-0.5,0.5c-0.1,0-0.3,0-0.4-0.1c-0.1-0.1-0.3-0.2-0.3-0.4c-0.1-0.3-0.2-0.6-0.2-0.9
		c-0.1-0.4-0.1-0.9-0.1-1.3c0-0.6,0-1.1,0.1-1.7c0.1-0.6,0.2-1.2,0.4-1.8c0.1-0.5,0.3-1.1,0.6-1.6c0.1-0.4,0.5-0.6,0.8-0.7
		c0.2,0,0.3,0.1,0.4,0.3c0.2,0.3,0.2,0.6,0.2,0.9l0,0l0.2-1.2l0.7-0.1c-0.3,1.8-0.5,3.7-0.7,5.5c0,0.2,0,0.4-0.1,0.6
		c0,0.2,0,0.4,0,0.5c0,0.2,0,0.5,0.1,0.7c0.1,0.1,0.2,0.2,0.3,0.2c0.4-0.1,0.8-0.6,1.1-1.7c0.3-1.3,0.5-2.6,0.4-3.9
		c0-0.7-0.1-1.4-0.2-2.1c-0.1-0.6-0.3-1.2-0.5-1.7c-0.2-0.4-0.5-0.8-0.8-1.1C60.4,62.1,60,62,59.6,62c-0.4,0-0.9,0.3-1.2,0.6
		c-0.4,0.5-0.8,1.1-1,1.7c-0.3,0.9-0.6,1.7-0.7,2.7c-0.2,1.2-0.3,2.4-0.2,3.6c0,1.1,0.1,2.2,0.3,3.3c0.1,0.8,0.3,1.6,0.7,2.3
		c0.2,0.5,0.5,0.9,0.9,1.2c0.3,0.2,0.8,0.3,1.2,0.2c0.5-0.1,0.9-0.4,1.2-0.7c0.4-0.4,0.7-0.9,0.9-1.5C61.6,75.5,61.7,75.7,61.7,75.8
		z M60.1,67.4c0-0.4-0.1-0.8-0.2-1.2c-0.1-0.2-0.2-0.4-0.4-0.3c-0.2,0-0.4,0.2-0.5,0.6c-0.2,0.4-0.3,0.9-0.4,1.3
		c-0.1,0.5-0.2,1.1-0.2,1.7s-0.1,1.2-0.1,1.7c0,0.5,0,1,0.1,1.5c0.1,0.2,0.2,0.3,0.3,0.3c0.2,0,0.4-0.3,0.6-0.7
		c0.1-0.4,0.3-0.9,0.4-1.3C59.8,69.8,60,68.6,60.1,67.4z"/>
	<path class="st14" d="M67.8,65.8c0,0.6-0.1,1.1-0.2,1.7c-0.1,0.5-0.4,0.9-0.6,1.3c-0.2,0.3-0.4,0.6-0.7,0.8
		c-0.3,0.2-0.5,0.5-0.9,0.8c-0.3,0.3-0.5,0.5-0.8,0.8c-0.3,0.3-0.5,0.7-0.6,1.1c1.1-0.3,2.3-0.6,3.4-0.9l-0.2,1.6
		c-1.3,0.4-2.6,0.8-4,1.2l0.1-1.4c0.1-0.3,0.2-0.6,0.3-0.8c0.1-0.3,0.3-0.6,0.4-0.8c0.1-0.2,0.3-0.5,0.5-0.7
		c0.2-0.2,0.4-0.5,0.6-0.7c0.2-0.3,0.5-0.5,0.7-0.8c0.2-0.2,0.4-0.5,0.5-0.7c0.2-0.4,0.4-0.8,0.4-1.2c0.1-0.5,0.1-0.9,0.1-1.4
		c0-0.5-0.1-0.9-0.2-1.4C66.4,64.1,66.2,64,66,64c-0.2,0-0.5,0.2-0.6,0.3c-0.2,0.2-0.3,0.4-0.4,0.6c0,0.1,0,0.2,0,0.3s0,0.3,0,0.5
		c0,0.4,0,0.9-0.1,1.3c0,0.2-0.2,0.4-0.5,0.5c-0.1,0-0.3,0-0.3-0.2C64,67.2,64,67,64,66.8c0-0.8,0.2-1.6,0.6-2.3
		c0.2-0.3,0.4-0.6,0.7-0.9c0.2-0.2,0.5-0.3,0.9-0.4c0.5,0,1,0.2,1.2,0.6C67.6,64.5,67.8,65.2,67.8,65.8z"/>
	<path class="st15" d="M73.2,65.5c0,0.7-0.1,1.5-0.3,2.2c-0.1,0.7-0.4,1.3-0.6,2c-0.2,0.6-0.5,1.1-0.9,1.6c-0.3,0.4-0.7,0.7-1.1,0.9
		c-0.5,0.2-1,0.1-1.3-0.4c0,0,0-0.1,0-0.1c-0.3-0.7-0.5-1.5-0.5-2.4c0-0.8,0.1-1.7,0.2-2.5c0.1-0.7,0.3-1.5,0.6-2.1
		c0.2-0.5,0.5-1,0.9-1.5c0.3-0.3,0.7-0.6,1.2-0.6c0.6-0.1,1.1,0.2,1.3,0.7C73.1,64.1,73.2,64.8,73.2,65.5z M72.3,65.4
		c0-0.6,0-1.1-0.2-1.6c-0.2-0.4-0.4-0.5-0.7-0.5c-0.4,0.1-0.7,0.3-0.9,0.7c-0.3,0.5-0.5,1.1-0.7,1.7c-0.3,1.3-0.5,2.6-0.5,3.9
		c0,0.6,0,1.2,0.2,1.7c0.2,0.4,0.4,0.5,0.7,0.4c0.3-0.2,0.6-0.5,0.8-0.8c0.3-0.6,0.5-1.2,0.7-1.8c0.2-0.6,0.3-1.3,0.4-1.9
		C72.2,66.4,72.3,65.9,72.3,65.4z"/>
	<path class="st16" d="M75.8,69.6c-0.5,0.3-1,0.3-1.3,0c-0.3-0.4-0.5-1-0.4-1.5c0-0.1,0-0.2,0-0.3c0-0.1,0-0.2,0-0.3
		c0.4-2.1,0.7-4.2,1.1-6.2v-0.1c0,0,0-0.1,0-0.1c0-0.1,0-0.2,0-0.3c0-0.1-0.1-0.1-0.1-0.2c-0.1-0.1-0.2-0.1-0.2-0.1l-0.3-0.1
		l0.1-0.5l2.6-0.1c0,0.1-0.1,0.3-0.1,0.4c-0.1,0-0.2,0-0.3,0.1c-0.1,0-0.2,0.1-0.3,0.1c-0.1,0.1-0.2,0.2-0.3,0.3
		c-0.1,0.1-0.1,0.3-0.1,0.4c-0.4,1.8-0.7,3.7-1.1,5.6c0,0.1,0,0.3-0.1,0.4c0,0.2,0,0.3,0,0.4c0,0.2,0,0.4,0,0.6
		c0,0.2,0.1,0.3,0.2,0.5c0.1,0.1,0.2,0.2,0.3,0.2c0.2,0,0.4,0,0.5-0.1c0.3-0.2,0.6-0.4,0.8-0.6c0.2-0.3,0.4-0.5,0.6-0.8
		c0.2-0.3,0.3-0.6,0.4-0.9c0.1-0.3,0.2-0.5,0.2-0.8l0.4-1.8c0.1-0.6,0.3-1.2,0.5-1.8c0.1-0.3,0.1-0.6,0.2-0.8c0-0.2,0.1-0.3,0.1-0.5
		c0-0.1,0-0.2,0-0.3c0-0.1,0-0.1-0.1-0.2c-0.1-0.1-0.2-0.2-0.4-0.2c-0.1,0-0.2-0.1-0.4-0.1c0-0.1,0.1-0.3,0.1-0.4l2.5-0.1
		c0,0.1-0.1,0.2-0.1,0.3l-0.4,0.1c-0.2,0-0.3,0.1-0.4,0.2c-0.2,0.2-0.3,0.4-0.4,0.6c-0.1,0.3-0.2,0.7-0.3,1
		c-0.2,0.6-0.3,1.1-0.5,1.7s-0.3,1.2-0.5,1.9c-0.1,0.5-0.3,1.1-0.6,1.6c-0.2,0.4-0.5,0.8-0.7,1.2c-0.2,0.3-0.5,0.6-0.7,0.8
		C76.3,69.3,76.1,69.5,75.8,69.6z"/>
</g>
</svg>
